<svg width="590" height="159" viewBox="0 0 590 159" fill="none" xmlns="http://www.w3.org/2000/svg">
<path d="M124 49L145.868 18.2233C148.326 14.7633 153.502 14.88 155.802 18.4473L175.5 49" stroke="white" stroke-width="10"/>
<path d="M234 49L255.868 18.2233C258.326 14.7633 263.502 14.88 265.802 18.4473L285.5 49" stroke="white" stroke-width="10"/>
<path d="M9.6 55.904H22.016L22.4 72.8L20.864 72.288C21.632 68.6187 22.9547 65.4613 24.832 62.816C26.7947 60.0853 29.184 57.9947 32 56.544C34.816 55.0933 37.888 54.368 41.216 54.368C47.0187 54.368 51.7547 55.9893 55.424 59.232C59.0933 62.4747 61.3973 66.9973 62.336 72.8H60.16C61.2693 66.912 63.616 62.3893 67.2 59.232C70.784 55.9893 75.392 54.368 81.024 54.368C85.7173 54.368 89.7707 55.392 93.184 57.44C96.5973 59.4027 99.1573 62.304 100.864 66.144C102.656 69.984 103.552 74.6773 103.552 80.224V124H89.984V83.552C89.984 77.5787 88.9173 73.1413 86.784 70.24C84.6507 67.2533 81.408 65.76 77.056 65.76C74.24 65.76 71.7653 66.4853 69.632 67.936C67.4987 69.3867 65.8347 71.52 64.64 74.336C63.5307 77.0667 62.976 80.3093 62.976 84.064V124H50.048V84.064C50.048 78.0907 49.024 73.568 46.976 70.496C45.0133 67.3387 41.8133 65.76 37.376 65.76C34.4747 65.76 31.9573 66.4853 29.824 67.936C27.6907 69.3867 26.0267 71.52 24.832 74.336C23.7227 77.0667 23.168 80.3093 23.168 84.064V124H9.6V55.904ZM149.516 125.536C143.031 125.536 137.356 124.085 132.492 121.184C127.628 118.283 123.831 114.144 121.1 108.768C118.455 103.392 117.132 97.12 117.132 89.952C117.132 82.784 118.455 76.512 121.1 71.136C123.831 65.76 127.628 61.6213 132.492 58.72C137.356 55.8187 143.031 54.368 149.516 54.368C155.916 54.368 161.548 55.8187 166.412 58.72C171.276 61.6213 175.031 65.76 177.676 71.136C180.407 76.512 181.772 82.784 181.772 89.952C181.772 97.12 180.407 103.392 177.676 108.768C175.031 114.144 171.276 118.283 166.412 121.184C161.548 124.085 155.916 125.536 149.516 125.536ZM149.516 113.76C155.233 113.76 159.671 111.669 162.828 107.488C166.071 103.221 167.692 97.376 167.692 89.952C167.692 82.528 166.071 76.7253 162.828 72.544C159.671 68.2773 155.233 66.144 149.516 66.144C143.799 66.144 139.319 68.2347 136.076 72.416C132.833 76.5973 131.212 82.4427 131.212 89.952C131.212 97.4613 132.833 103.307 136.076 107.488C139.319 111.669 143.799 113.76 149.516 113.76ZM184.363 132.064H190.507C192.128 132.064 193.494 131.851 194.603 131.424C195.712 130.997 196.523 130.187 197.035 128.992C197.632 127.883 197.931 126.432 197.931 124.64V55.904H211.627V125.152C211.627 131.637 210.134 136.245 207.147 138.976C204.246 141.792 199.382 143.2 192.555 143.2H184.363V132.064ZM197.675 32.48H211.883V46.048H197.675V32.48ZM259.141 125.536C252.656 125.536 246.981 124.085 242.117 121.184C237.253 118.283 233.456 114.144 230.725 108.768C228.08 103.392 226.757 97.12 226.757 89.952C226.757 82.784 228.08 76.512 230.725 71.136C233.456 65.76 237.253 61.6213 242.117 58.72C246.981 55.8187 252.656 54.368 259.141 54.368C265.541 54.368 271.173 55.8187 276.037 58.72C280.901 61.6213 284.656 65.76 287.301 71.136C290.032 76.512 291.397 82.784 291.397 89.952C291.397 97.12 290.032 103.392 287.301 108.768C284.656 114.144 280.901 118.283 276.037 121.184C271.173 124.085 265.541 125.536 259.141 125.536ZM259.141 113.76C264.858 113.76 269.296 111.669 272.453 107.488C275.696 103.221 277.317 97.376 277.317 89.952C277.317 82.528 275.696 76.7253 272.453 72.544C269.296 68.2773 264.858 66.144 259.141 66.144C253.424 66.144 248.944 68.2347 245.701 72.416C242.458 76.5973 240.837 82.4427 240.837 89.952C240.837 97.4613 242.458 103.307 245.701 107.488C248.944 111.669 253.424 113.76 259.141 113.76ZM305.85 55.904H318.266L318.65 72.8L317.114 72.288C317.882 68.6187 319.205 65.4613 321.082 62.816C323.045 60.0853 325.434 57.9947 328.25 56.544C331.066 55.0933 334.138 54.368 337.466 54.368C343.269 54.368 348.005 55.9893 351.674 59.232C355.343 62.4747 357.647 66.9973 358.586 72.8H356.41C357.519 66.912 359.866 62.3893 363.45 59.232C367.034 55.9893 371.642 54.368 377.274 54.368C381.967 54.368 386.021 55.392 389.434 57.44C392.847 59.4027 395.407 62.304 397.114 66.144C398.906 69.984 399.802 74.6773 399.802 80.224V124H386.234V83.552C386.234 77.5787 385.167 73.1413 383.034 70.24C380.901 67.2533 377.658 65.76 373.306 65.76C370.49 65.76 368.015 66.4853 365.882 67.936C363.749 69.3867 362.085 71.52 360.89 74.336C359.781 77.0667 359.226 80.3093 359.226 84.064V124H346.298V84.064C346.298 78.0907 345.274 73.568 343.226 70.496C341.263 67.3387 338.063 65.76 333.626 65.76C330.725 65.76 328.207 66.4853 326.074 67.936C323.941 69.3867 322.277 71.52 321.082 74.336C319.973 77.0667 319.418 80.3093 319.418 84.064V124H305.85V55.904ZM437.053 125.536C429.97 125.536 424.296 123.915 420.029 120.672C415.848 117.344 413.757 112.779 413.757 106.976C413.757 101.173 415.506 96.608 419.005 93.28C422.504 89.952 428.008 87.5627 435.517 86.112L458.941 81.632C458.941 76.3413 457.704 72.416 455.229 69.856C452.84 67.2107 449.213 65.888 444.349 65.888C440.082 65.888 436.669 66.8693 434.109 68.832C431.549 70.7093 429.842 73.5253 428.989 77.28L414.909 76.384C416.189 69.472 419.389 64.096 424.509 60.256C429.714 56.3307 436.328 54.368 444.349 54.368C453.48 54.368 460.434 56.8 465.213 61.664C470.077 66.528 472.509 73.44 472.509 82.4V108.896C472.509 110.517 472.808 111.669 473.405 112.352C474.002 112.949 474.941 113.248 476.221 113.248H478.653V124C478.056 124.085 477.288 124.171 476.349 124.256C475.496 124.341 474.6 124.384 473.661 124.384C468.968 124.384 465.469 123.275 463.165 121.056C460.946 118.752 459.837 114.912 459.837 109.536L461.245 110.176C460.306 114.613 457.576 118.283 453.053 121.184C448.53 124.085 443.197 125.536 437.053 125.536ZM439.357 114.784C443.368 114.784 446.824 114.016 449.725 112.48C452.712 110.859 454.973 108.64 456.509 105.824C458.13 103.008 458.941 99.808 458.941 96.224V91.872L439.101 95.712C435.09 96.48 432.189 97.6747 430.397 99.296C428.69 100.917 427.837 103.051 427.837 105.696C427.837 108.597 428.818 110.859 430.781 112.48C432.829 114.016 435.688 114.784 439.357 114.784ZM513.595 89.184L489.915 55.904H505.147L521.787 80.352L538.171 55.904H553.531L530.107 89.44L554.555 124H539.451L521.915 98.016L504.379 124H488.891L513.595 89.184ZM566.725 55.904H580.293V124H566.725V55.904ZM566.469 32.48H580.677V46.048H566.469V32.48Z" fill="white"/>
<ellipse cx="271.5" cy="90.5" rx="11.5" ry="18.5" fill="white"/>
<ellipse cx="161.5" cy="90.5" rx="11.5" ry="18.5" fill="white"/>
</svg>
