<svg width="39" height="39" viewBox="0 0 39 39" fill="none" xmlns="http://www.w3.org/2000/svg">
<path d="M12.5401 2.2677C13.1376 -0.0999638 16.1625 -0.800054 17.7394 1.06435L24.4679 9.01929C24.8726 9.4977 25.4169 9.8374 26.0244 9.99071L36.1266 12.54C38.4943 13.1375 39.1944 16.1624 37.33 17.7393L29.375 24.4678C28.8966 24.8725 28.5569 25.4168 28.4036 26.0243L25.8543 36.1266C25.2569 38.4942 22.232 39.1943 20.655 37.3299L13.9265 29.375C13.5218 28.8966 12.9776 28.5569 12.37 28.4036L2.26778 25.8543C-0.0998888 25.2568 -0.799979 22.2319 1.06443 20.6549L9.01937 13.9264C9.49778 13.5218 9.83747 12.9775 9.99079 12.3699L12.5401 2.2677Z" fill="#FD1B77"/>
</svg>
