<svg width="62" height="62" viewBox="0 0 62 62" fill="none" xmlns="http://www.w3.org/2000/svg">
<path d="M39.2255 0.776862C41.0382 -0.859317 43.9419 0.239959 44.2166 2.66635L46.4772 22.6351C46.5477 23.2577 46.8114 23.8426 47.2312 24.3078L60.6967 39.2256C62.3329 41.0383 61.2336 43.942 58.8072 44.2167L38.8384 46.4774C38.2158 46.5479 37.6309 46.8115 37.1658 47.2314L22.2479 60.6968C20.4352 62.333 17.5315 61.2337 17.2568 58.8073L14.9962 38.8386C14.9257 38.216 14.662 37.6311 14.2422 37.1659L0.776714 22.2481C-0.859465 20.4354 0.239811 17.5316 2.6662 17.257L22.6349 14.9963C23.2576 14.9258 23.8425 14.6622 24.3076 14.2423L39.2255 0.776862Z" fill="#FD1B77"/>
</svg>
