<svg width="87" height="87" viewBox="0 0 87 87" fill="none" xmlns="http://www.w3.org/2000/svg">
<path opacity="0.2" d="M47.0715 86.474C70.9852 84.394 88.5539 63.4833 86.4739 39.5696C84.394 15.6559 63.4833 -1.9128 39.5696 0.167163C15.6559 2.24713 -1.9128 23.1578 0.167163 47.0715C2.24713 70.9852 23.1577 88.5539 47.0715 86.474Z" fill="#FD1B77"/>
<path d="M55.7829 49.1164C55.2337 42.8239 51.2724 40.9952 43.6419 40.7498C38.185 40.4986 36.9814 39.1548 36.7594 36.6366C36.5374 34.1185 38.1967 32.3423 41.7957 32.0327C45.0325 31.7522 46.9255 32.6753 48.0589 35.2928C48.2868 35.8186 48.8594 36.1283 49.3969 36.0816L52.2715 35.8304C52.9901 35.7661 53.4809 35.1818 53.4224 34.4632L53.4049 34.282C52.3416 30.3909 48.8418 27.6157 44.6702 27.6157L44.2963 23.298C44.232 22.5793 43.6478 22.0886 42.7305 21.9834L40.0312 22.2171C39.3126 22.2814 38.8218 22.8656 38.7166 23.7829L39.0789 27.9195C33.7446 29.1055 30.6422 33.0025 31.0336 37.4955C31.5478 43.4315 35.3513 45.4531 42.9817 45.6985C48.094 46.16 49.8059 47.1007 50.0571 49.9752C50.3083 52.8498 47.9596 55.0466 44.5475 55.3446C39.8735 55.7536 38.0798 53.9132 37.3086 51.2606C37.069 50.5595 36.4964 50.244 35.9589 50.2908L32.9032 50.5537C32.1846 50.618 31.6938 51.2022 31.7523 51.9208L31.7698 52.102C32.8799 56.5365 36.0407 59.522 42.0528 59.9077L42.4267 64.2253C42.4909 64.944 43.0752 65.4348 43.9925 65.5399L46.6918 65.3062C47.4104 65.242 47.9012 64.6577 48.0064 63.7404L47.6324 59.4227C52.9492 58.0556 56.2152 53.9657 55.7945 49.1106L55.7829 49.1164Z" fill="#FD1B77"/>
<path d="M36.3855 69.8284C21.9251 66.0132 13.3715 50.9919 17.3796 36.6951C19.4186 28.9069 24.8522 22.6378 31.9919 19.3017C32.6813 18.881 32.991 18.3084 32.915 17.4087L32.6989 14.8905C32.6346 14.1719 32.2315 13.6636 31.4953 13.5467C31.3142 13.5643 30.9578 13.5934 30.7942 13.7863C14.1778 20.663 6.40717 39.6397 13.2897 56.2561C17.4029 66.0424 25.8046 73.1061 36.1577 75.4665C36.9055 75.7645 37.5949 75.3438 37.7118 74.6077C37.8754 74.4149 37.8578 74.2337 37.8286 73.8715L37.6125 71.3533C37.5657 70.8158 36.964 70.1439 36.3914 69.8284H36.3855ZM50.5713 12.0685C49.8235 11.7706 49.1341 12.1912 49.0172 12.9274C48.8536 13.1202 48.8711 13.3013 48.9004 13.6636L49.1165 16.1817C49.1808 16.9004 49.7826 17.5723 50.3493 17.8878C64.8097 21.703 73.3633 36.7243 69.3553 51.0211C67.3162 58.8093 61.8826 65.0784 54.7429 68.4145C54.0535 68.8352 53.7439 69.4078 53.8198 70.3075L54.036 72.8257C54.1002 73.5443 54.5034 74.0526 55.2396 74.1695C55.4207 74.1519 55.7771 74.1227 55.9407 73.9299C72.557 67.0532 80.3277 48.0764 73.4451 31.4601C69.3202 21.4926 60.7316 14.4465 50.5597 12.0685H50.5713Z" fill="#FD1B77"/>
</svg>
