<svg width="133" height="133" viewBox="0 0 133 133" fill="none" xmlns="http://www.w3.org/2000/svg">
<path opacity="0.2" d="M66.3134 132.627C102.937 132.627 132.627 102.937 132.627 66.3134C132.627 29.6895 102.937 0 66.3134 0C29.6895 0 0 29.6895 0 66.3134C0 102.937 29.6895 132.627 66.3134 132.627Z" fill="#FD1B77"/>
<path d="M35.0614 79.2081C35.6515 78.7875 36.3935 78.6063 37.1297 78.7232L104.039 89.7131C105.26 89.9117 105.628 91.4893 104.623 92.2137L89.2339 103.262C88.6438 103.683 87.9018 103.864 87.1656 103.747L20.2563 92.7571C19.0352 92.5584 18.6671 90.9809 19.672 90.2564L35.0614 79.2081Z" fill="#FD1B77"/>
<path d="M43.1649 29.8615C43.7725 29.4409 44.5204 29.2598 45.2332 29.3766L112.143 40.3665C113.364 40.5652 113.732 42.1427 112.727 42.8671L97.3374 53.9155C96.7473 54.3362 96.0053 54.5173 95.2691 54.4004L28.3598 43.4105C27.1387 43.2119 26.7706 41.6344 27.7755 40.9099L43.1649 29.8615Z" fill="#FD1B77"/>
<path d="M95.7425 63.6727C95.3219 63.0826 94.6733 62.6736 93.9372 62.5509L27.0278 51.561C25.8067 51.3623 24.9537 52.7353 25.6723 53.7403L36.7207 69.1297C37.1413 69.7198 37.7899 70.1287 38.526 70.2514L105.435 81.2413C106.656 81.44 107.51 80.067 106.791 79.0621L95.7425 63.6727Z" fill="#FD1B77"/>
</svg>
