<svg width="79" height="79" viewBox="0 0 79 79" fill="none" xmlns="http://www.w3.org/2000/svg">
<path opacity="0.2" d="M39.3966 78.7932C17.7031 78.7932 0 61.0668 0 39.3966C0 17.7264 17.7264 0 39.3966 0C61.0668 0 78.7932 17.7264 78.7932 39.3966C78.7932 61.0668 61.0843 78.7932 39.3966 78.7932Z" fill="#FD1B77"/>
<path d="M36.8842 49.3348H53.9387V57.8591H43.8778V65.0748H35.1256V58.0812H24.6323C24.6323 55.2358 24.1999 52.4021 24.8543 49.7788C25.0763 48.4642 26.6012 47.1555 27.6996 45.8409C30.9773 41.903 34.2609 37.971 37.7606 34.0331C39.0693 32.4965 40.3839 31.1877 41.9205 29.4408H25.5262V20.9164H35.1431V13.7008H43.6675V20.6886H54.1608C54.1608 23.5339 54.5931 26.3676 53.9387 28.9909C53.7167 30.3055 52.1918 31.6142 51.0934 32.9288C47.8157 36.8667 44.5322 40.7987 41.0324 44.7367C39.7179 46.2733 38.4091 47.7924 36.8901 49.329L36.8842 49.3348Z" fill="#FD1B77"/>
</svg>
