<svg width="336" height="454" viewBox="0 0 336 454" fill="none" xmlns="http://www.w3.org/2000/svg">
<path opacity="0.1" d="M264.379 146.458L284.928 66.8123C285.267 65.4918 286.616 64.6972 287.931 65.0419L293.581 66.5026C294.901 66.8415 296.245 66.0469 296.584 64.7323L303.834 36.6177C304.173 35.2973 303.379 33.9535 302.064 33.6146L172.078 0.0781685C170.758 -0.260702 169.414 0.53389 169.075 1.84847L161.824 29.963C161.486 31.2835 162.28 32.6272 163.595 32.9661L169.244 34.4268C170.565 34.7656 171.359 36.1153 171.015 37.4299L150.466 117.076C150.209 118.063 149.368 118.788 148.357 118.905C83.7732 126.43 27.1234 171.342 7.26447 236.651C-21.3934 330.897 37.5875 430.087 134.072 449.929C221.08 467.824 307.737 414.452 330.173 327.485C347.999 258.391 320.083 188.256 265.332 149.082C264.502 148.486 264.116 147.446 264.368 146.458H264.379Z" fill="#FD1B77"/>
</svg>
