<svg width="64" height="64" viewBox="0 0 74 74" fill="none" xmlns="http://www.w3.org/2000/svg" aria-label="Backpack">
  <g transform="translate(-34.5 0.296)">
    <path d="M91.1745 53.0754C93.7628 53.0754 95.057 53.0754 95.8609 53.8796C96.6651 54.6835 96.6651 55.9777 96.6651 58.566V62.2264C96.6651 67.4028 96.6651 69.9912 95.057 71.5994C93.4487 73.2075 90.8604 73.2075 85.6839 73.2075H57.3161C52.1395 73.2075 49.5512 73.2075 47.9431 71.5994C46.3349 69.9912 46.335 67.4028 46.335 62.2264V58.566C46.335 55.9777 46.3349 54.6835 47.139 53.8796C47.9431 53.0754 49.2372 53.0754 51.8255 53.0754H91.1745Z" fill="#E33E3F"/>
    <path fill-rule="evenodd" clip-rule="evenodd" d="M71.5 10.7524C97.0313 10.7524 96.665 27.7729 96.665 35.9175C96.665 44.0621 96.665 45.0684 96.665 45.0684C96.665 46.5845 95.4358 47.8137 93.9198 47.8137H49.0802C47.564 47.8137 46.3349 46.5845 46.3349 45.0684C46.3349 45.0684 46.3349 44.0621 46.3349 35.9175C46.3349 27.7729 45.9687 10.7524 71.5 10.7524ZM71.5 17.2381C67.2042 17.2381 63.7217 20.7205 63.7217 25.0164C63.7218 29.3121 67.2042 32.7947 71.5 32.7947C75.7959 32.7947 79.2783 29.3121 79.2783 25.0164C79.2783 20.7205 75.7959 17.2381 71.5 17.2381Z" fill="#E33E3F"/>
    <path d="M71.4927 0.201172C77.0018 0.201172 81.8243 2.12672 83.0997 5.26255C83.2919 5.8036 83.3878 6.07417 83.2171 6.27506C83.0462 6.47594 82.7158 6.41607 82.0549 6.29629C80.3469 5.98671 77.9288 5.77384 75.7998 5.71095C74.4413 5.63795 73.0083 5.60013 71.5005 5.60013C69.9933 5.60013 68.5609 5.63802 67.2031 5.71095C65.064 5.77382 62.6372 5.98664 60.9231 6.28579C60.2762 6.39866 59.9527 6.45501 59.7832 6.25472C59.6137 6.05438 59.7074 5.78875 59.8949 5.25763C61.16 2.13169 65.9853 0.201189 71.4927 0.201172Z" fill="#E33E3F"/>
  </g>
</svg>