<svg width="570" height="575" viewBox="0 0 570 575" fill="none" xmlns="http://www.w3.org/2000/svg">
<path d="M348.135 445.623C345.905 443.783 343.02 444.321 340.408 447.682C334.232 455.627 325.983 458.52 316.275 458.481C299.237 458.411 289.569 448.134 290.668 431.214C290.785 429.405 291.37 428.578 293.124 428.095C297.405 426.902 301.296 424.929 304.485 421.701C310.357 415.775 309.756 407.961 302.762 403.416C291.3 395.969 279.151 396.398 267.377 402.067C257.669 406.745 257.537 418.449 266.644 424.305C268.944 425.787 271.611 426.675 274.106 427.853C275.073 428.313 276.414 428.383 276.391 429.95C276.305 435.331 277.077 440.773 274.395 445.873C268.484 457.085 253.154 461.366 241.341 455.089C237.583 453.093 234.776 450.122 232.008 446.996C229.528 444.196 226.557 443.666 224.405 445.561C221.707 447.931 222.144 450.653 223.937 453.351C225.887 456.29 228.023 459.058 230.737 461.382C246.02 474.497 271.502 472.259 283.962 454.536C290.286 463.534 298.863 468.103 309.125 469.444C324.938 471.511 338.56 467.745 347.995 453.748C350.319 450.31 350.319 447.417 348.135 445.6V445.623Z" fill="url(#paint0_linear_7_182)"/>
<path d="M348.135 445.623C345.905 443.783 343.02 444.321 340.408 447.682C334.232 455.627 325.983 458.52 316.275 458.481C299.237 458.411 289.569 448.134 290.668 431.214C290.785 429.405 291.37 428.578 293.124 428.095C297.405 426.902 301.296 424.929 304.485 421.701C310.357 415.775 309.756 407.961 302.762 403.416C291.3 395.969 279.151 396.398 267.377 402.067C257.669 406.745 257.537 418.449 266.644 424.305C268.944 425.787 271.611 426.675 274.106 427.853C275.073 428.313 276.414 428.383 276.391 429.95C276.305 435.331 277.077 440.773 274.395 445.873C268.484 457.085 253.154 461.366 241.341 455.089C237.583 453.093 234.776 450.122 232.008 446.996C229.528 444.196 226.557 443.666 224.405 445.561C221.707 447.931 222.144 450.653 223.937 453.351C225.887 456.29 228.023 459.058 230.737 461.382C246.02 474.497 271.502 472.259 283.962 454.536C290.286 463.534 298.863 468.103 309.125 469.444C324.938 471.511 338.56 467.745 347.995 453.748C350.319 450.31 350.319 447.417 348.135 445.6V445.623Z" fill="url(#paint1_linear_7_182)"/>
<path d="M156.7 301.62C130.617 308.396 112.293 332.084 114.126 358.034C115.849 382.362 129.042 399.033 151.226 408.203C188.007 423.416 232.741 398.293 232.437 356.163C232.437 347.976 230.768 340.155 227.251 332.755C215.103 307.203 185.48 294.134 156.7 301.612V301.62ZM162.68 355.921C163.328 366.152 168.178 374.113 176.42 379.992C184.708 385.902 194.003 386.768 204.225 384.803C203.071 387.033 201.465 388.055 199.984 389.076C184.88 399.447 168.794 400.959 152.63 392.562C137.674 384.787 129.51 371.961 129.51 354.674C129.51 335.32 146.181 317.168 165.706 314.758C178.057 313.238 189.34 315.725 199.477 323.382C188.591 322.774 178.962 325.558 171.289 333.293C165.176 339.461 162.142 347.126 162.696 355.921H162.68Z" fill="url(#paint2_linear_7_182)"/>
<path d="M156.7 301.62C130.617 308.396 112.293 332.084 114.126 358.034C115.849 382.362 129.042 399.033 151.226 408.203C188.007 423.416 232.741 398.293 232.437 356.163C232.437 347.976 230.768 340.155 227.251 332.755C215.103 307.203 185.48 294.134 156.7 301.612V301.62ZM162.68 355.921C163.328 366.152 168.178 374.113 176.42 379.992C184.708 385.902 194.003 386.768 204.225 384.803C203.071 387.033 201.465 388.055 199.984 389.076C184.88 399.447 168.794 400.959 152.63 392.562C137.674 384.787 129.51 371.961 129.51 354.674C129.51 335.32 146.181 317.168 165.706 314.758C178.057 313.238 189.34 315.725 199.477 323.382C188.591 322.774 178.962 325.558 171.289 333.293C165.176 339.461 162.142 347.126 162.696 355.921H162.68Z" fill="url(#paint3_linear_7_182)"/>
<path d="M336.665 371.875C347.956 406.8 388.409 422.862 421.884 405.731C449.666 391.509 460.528 358.533 445.822 330.969C434.57 309.877 416.028 300.193 398.008 299.538C381.197 299.6 372.229 301.978 361.968 307.671C339.34 320.217 328.688 347.243 336.65 371.883L336.665 371.875ZM358.381 330.431C375.582 309.402 404.316 311.109 419.147 323.624C394 322.275 382.163 340.295 382.577 354.978C382.764 361.645 384.916 367.547 388.955 372.803C393.041 378.121 398.086 382.058 404.581 384.093C410.811 386.051 417.112 386.183 423.786 384.912C414.11 397.708 386.257 403.79 366.904 389.131C347.519 374.448 343.745 348.327 358.389 330.431H358.381Z" fill="url(#paint4_linear_7_182)"/>
<path d="M336.665 371.875C347.956 406.8 388.409 422.862 421.884 405.731C449.666 391.509 460.528 358.533 445.822 330.969C434.57 309.877 416.028 300.193 398.008 299.538C381.197 299.6 372.229 301.978 361.968 307.671C339.34 320.217 328.688 347.243 336.65 371.883L336.665 371.875ZM358.381 330.431C375.582 309.402 404.316 311.109 419.147 323.624C394 322.275 382.163 340.295 382.577 354.978C382.764 361.645 384.916 367.547 388.955 372.803C393.041 378.121 398.086 382.058 404.581 384.093C410.811 386.051 417.112 386.183 423.786 384.912C414.11 397.708 386.257 403.79 366.904 389.131C347.519 374.448 343.745 348.327 358.389 330.431H358.381Z" fill="url(#paint5_linear_7_182)"/>
<path d="M248.211 402.901C248.351 402.87 248.468 402.807 248.577 402.753C248.468 402.815 248.351 402.87 248.211 402.901Z" fill="url(#paint6_linear_7_182)"/>
<path d="M248.211 402.901C248.351 402.87 248.468 402.807 248.577 402.753C248.468 402.815 248.351 402.87 248.211 402.901Z" fill="url(#paint7_linear_7_182)"/>
<path d="M101.081 169.71C94.3747 165.273 94.8192 164.267 92.7919 173.188C87.9496 194.467 87.2245 216.089 88.4331 237.805C88.8385 245.057 89.4078 252.301 91.2324 259.966C112.371 243.841 135.717 233.049 160.513 224.69C159.998 223.918 159.702 223.38 159.32 222.928C142.165 202.693 123.249 184.369 101.073 169.71H101.081Z" fill="url(#paint8_linear_7_182)"/>
<path d="M101.081 169.71C94.3747 165.273 94.8192 164.267 92.7919 173.188C87.9496 194.467 87.2245 216.089 88.4331 237.805C88.8385 245.057 89.4078 252.301 91.2324 259.966C112.371 243.841 135.717 233.049 160.513 224.69C159.998 223.918 159.702 223.38 159.32 222.928C142.165 202.693 123.249 184.369 101.073 169.71H101.081Z" fill="url(#paint9_linear_7_182)"/>
<path d="M548.32 359.282C557.778 356.186 565.201 348.771 568.281 339.305C570.519 332.443 571.681 321.815 564.585 310.033C556.289 294.696 547.041 281.284 536.53 269.369C541.434 235.162 541.621 200.838 537.068 167.145C535.29 154.029 532.81 138.746 525.8 123.346C521.863 114.691 516.256 107.876 509.519 103.128C510.283 101.623 510.97 100.087 511.562 98.5115C515.89 87.1662 514.658 75.01 508.186 65.154C501.73 55.3292 491.11 49.3875 479.016 48.8573C472.014 48.561 466.345 49.8866 462.586 50.7677L462.134 50.8768C459.74 51.4305 458.095 51.6878 456.98 51.7969C450.688 44.5999 444.184 38.3463 438.484 33.0519C424.176 19.7494 407.599 10.1741 389.228 4.58332C367.044 -2.16148 345.25 -1.4597 324.47 6.67305C304.524 14.4783 289.608 27.7262 277.654 39.6563C241.801 75.4155 209.325 113.943 179.102 150.38C169.285 141.437 158.673 132.633 147.187 123.916C132.957 113.108 121.151 105.818 108.901 100.274C92.4722 92.8506 79.2789 95.0806 71.0994 98.2698C62.8653 101.475 51.5356 108.835 44.3229 125.701C40.2682 135.175 37.3832 145.733 35.504 157.975C29.7495 195.348 29.5623 232.846 34.9192 269.619C26.7786 278.828 19.9013 288.013 14.061 297.479C11.6594 301.37 9.39029 305.238 7.19141 308.981C6.57541 310.025 5.9594 311.07 5.3434 312.115C5.22644 312.287 5.12507 312.466 5.01591 312.638C4.83657 312.91 4.66503 313.191 4.49348 313.464C4.29855 313.792 4.1036 314.127 3.91647 314.462C3.76052 314.743 3.60457 315.031 3.45642 315.32C3.27708 315.663 3.11333 316.014 2.94959 316.365C2.81703 316.653 2.67667 316.942 2.55191 317.238C2.39596 317.605 2.24782 317.979 2.10746 318.353C1.9983 318.642 1.88133 318.93 1.77216 319.226C1.63181 319.632 1.50705 320.037 1.38229 320.451C1.29652 320.724 1.20296 320.996 1.13278 321.269C0.992425 321.768 0.883259 322.267 0.766297 322.774C0.719513 322.969 0.664924 323.164 0.625937 323.359C0.485583 324.069 0.36083 324.778 0.26726 325.496C0.243868 325.659 0.236072 325.823 0.220478 325.987C0.158098 326.501 0.103518 327.008 0.0645308 327.531C0.0645308 327.593 0.0645231 327.655 0.0567257 327.718C0.0567257 327.749 0.05673 327.78 0.0489325 327.804V327.944C0.0255401 328.24 0.0177403 328.529 0.00994283 328.825C0.00994283 328.864 0.00994283 328.903 0.00994283 328.934C-0.325348 342.252 7.84638 354.37 20.4237 358.993C21.336 359.329 22.2483 359.617 23.1762 359.859C26.1314 360.724 29.1413 361.153 32.1511 361.153C33.7573 361.153 35.3636 361.021 36.9621 360.779C36.58 366.573 36.4085 372.226 36.4553 377.77C27.4258 379.165 19.4646 383.633 13.7491 390.589C7.31616 398.417 4.54027 408.398 5.95941 418.73C7.50331 429.872 13.7257 439.05 22.6694 444.547C21.4062 449.6 21.219 455.043 22.2561 460.618C25.8819 480.119 44.2839 493.032 64.1674 490.014C67.6451 489.484 70.6783 488.657 73.1657 487.893C80.0821 496.72 88.0355 505.009 97.2521 513.017C124.582 536.76 158.205 553.501 200.046 564.184C228.047 571.326 256.811 574.913 286.021 574.913C301.92 574.913 317.959 573.852 334.061 571.724C376.994 566.055 413.868 553.688 446.781 533.929C467.764 521.336 485.402 505.921 499.344 487.995C500.147 488.244 500.958 488.494 501.761 488.743C512.046 491.901 522.619 490.934 531.547 486.03C540.163 481.297 546.362 473.398 549.013 463.768C550.846 457.078 550.799 450.45 549.162 444.368C559.735 437.818 566.316 426.192 565.918 412.585C565.412 394.745 552.881 380.826 535.383 377.778C535.36 371.781 535.087 366.027 534.713 360.584C539.22 361.153 543.867 360.748 548.304 359.298L548.32 359.282ZM202.9 170.56C233.91 133.163 265.272 96.0709 299.69 61.7387C310.325 51.1342 321.585 41.3016 335.847 35.7186C350.475 29.9952 365.368 29.9251 380.167 34.4242C394.109 38.666 406.593 45.9722 417.268 55.8984C423.942 62.1052 430.5 68.5303 436.317 75.626C437.362 76.897 438.672 77.7781 440.067 78.5656C440.442 78.8151 440.824 79.0647 441.198 79.3142C441.588 79.5325 441.97 79.7586 442.36 79.977C442.718 80.2577 443.077 80.5384 443.444 80.8191C451.958 84.1876 460.551 83.2597 469.167 81.2635C471.975 80.6164 474.782 79.899 477.698 80.0238C481.792 80.1953 483.92 83.517 482.447 87.3923C481.487 89.9031 479.951 92.0786 478.096 93.95C465.635 106.496 451.054 115.042 433.338 117.537C421.533 119.198 412.238 114.364 407.669 104.297C405.088 100.094 403.505 95.4939 402.32 90.7375L401.751 89.1858C399.848 84.133 398.101 79.0179 395.201 74.4174C394.811 73.8248 394.429 73.2244 394.039 72.6318C393.657 72.2497 393.283 71.8754 392.901 71.4933C392.526 71.1113 392.152 70.737 391.785 70.3549C390.132 69.5439 388.464 68.7876 386.538 69.271C386.054 69.6219 385.579 69.9806 385.095 70.3315C384.744 71.0723 384.394 71.813 384.05 72.546C383.91 73.0606 383.77 73.5674 383.622 74.0821C383.232 74.9788 382.912 75.8755 382.655 76.7644C382.912 75.8677 383.232 74.9788 383.622 74.0821C383.06 80.4058 383.419 86.714 384.019 93.0143C384.074 93.529 384.121 94.0436 384.175 94.566C384.3 95.3146 384.425 96.0631 384.542 96.8039C385.064 98.8 385.797 100.765 385.696 102.878C385.82 103.377 385.945 103.868 386.07 104.367C386.195 104.882 386.319 105.397 386.444 105.904C387.996 111.44 389.555 116.984 391.107 122.52C391.302 123.035 391.497 123.557 391.684 124.072C391.684 124.766 391.723 125.436 391.793 126.099C391.715 125.436 391.684 124.758 391.684 124.072C393.322 128.345 394.959 132.625 396.597 136.898C399.123 141.538 401.525 146.248 404.238 150.77C405.439 152.774 404.269 153.382 403.053 154.31C393.267 161.803 383.894 169.811 374.584 177.89C370.506 181.43 366.576 185.157 362.654 188.876C361.274 190.186 360.011 190.67 357.991 190.249C318.645 181.976 278.824 178.506 238.659 178.732C225.466 178.81 212.35 180.143 199.212 181.235C197.847 181.352 196.49 181.5 194.307 181.71C197.457 177.601 200.046 173.96 202.892 170.529L202.9 170.56ZM534.76 413.474C534.845 416.718 532.873 418.738 528.857 418.855C520.069 419.12 511.282 419.244 502.494 419.237C499.96 419.237 498.837 420.048 498.112 422.582C496.568 428.024 494.689 433.389 492.677 438.683C491.858 440.828 492.357 441.452 494.392 442.06C501.005 444.025 507.586 446.13 514.135 448.313C518.362 449.725 519.874 452.15 518.939 455.542C518.073 458.684 515.04 460.189 510.923 458.926C500.123 455.612 489.402 452.064 478.641 448.61C477.448 448.228 476.279 447.713 475.062 447.448C473.144 447.027 471.897 448.134 471.21 449.732C470.485 451.432 470.844 453.07 472.614 453.904C474.875 454.98 477.175 456.095 479.585 456.711C482.337 457.421 482.205 458.302 480.786 460.431C467.756 479.979 450.742 495.168 430.734 507.176C399.614 525.851 365.68 536.074 329.975 540.791C288.828 546.226 248.016 544.238 207.758 533.953C174.665 525.5 143.85 512.174 117.705 489.461C107.786 480.844 98.9519 471.253 91.6535 460.251C90.3123 458.232 89.8367 457.171 92.7685 456.501C94.6945 456.056 96.5425 455.128 98.3281 454.224C100.106 453.319 101.541 451.978 100.621 449.709C99.7005 447.456 98.0162 446.972 95.7004 447.736C86.0549 450.949 76.3861 454.083 66.7094 457.202C64.3234 457.967 61.914 458.793 59.4578 459.167C56.0659 459.682 53.4693 457.889 52.9157 454.91C52.2763 451.471 53.906 449.374 57.1107 448.352C63.684 446.247 70.2183 444.001 76.8461 442.091C79.7858 441.241 80.7137 440.274 79.2633 437.202C77.0099 432.43 75.0449 427.486 73.8519 422.309C73.3217 420.016 72.0975 419.338 69.922 419.322C60.8847 419.26 51.8397 419.096 42.8024 418.94C39.7614 418.886 37.3208 417.872 36.8451 414.441C36.3851 411.088 38.4436 408.71 42.0149 408.499C50.2802 408.016 58.5533 407.462 66.8342 407.252C69.9298 407.174 70.2651 406.02 69.8284 403.377C67.4034 388.749 67.1227 374.035 68.3235 359.274C68.4326 357.894 68.7056 356.522 68.7523 355.142C68.8225 352.787 69.766 351.64 72.23 352.256C72.4717 352.319 72.729 352.28 72.9786 352.295C82.6318 352.794 82.3121 352.841 83.6689 362.183C88.5111 395.478 106.71 419.182 137.05 432.523C171.999 447.892 204.452 441.53 233.918 417.825C234.698 417.201 235.501 416.617 236.296 416.016C236.6 415.751 236.912 415.486 237.216 415.229C237.489 414.964 237.762 414.706 238.035 414.441L237.934 414.543C238.222 414.27 238.511 413.989 238.799 413.716L238.714 413.802C238.994 413.521 239.267 413.248 239.548 412.967L239.47 413.045C239.735 412.78 239.992 412.515 240.257 412.25C240.257 412.25 240.242 412.25 240.234 412.25C240.234 411.221 240.733 410.691 241.762 410.683C241.762 410.691 241.762 410.698 241.762 410.706C241.996 410.464 242.23 410.223 242.464 409.981C242.729 409.685 243.002 409.381 243.267 409.084L243.143 409.248C243.431 408.897 243.727 408.546 244.016 408.195C244 407.915 244.141 407.743 244.421 407.696C244.827 407.229 245.224 406.753 245.63 406.285C246.043 405.755 246.456 405.217 246.862 404.687C247.135 404.351 247.408 404.008 247.681 403.673L247.525 403.813C247.743 403.517 247.969 403.221 248.187 402.932L248.242 402.862C248.226 402.885 248.211 402.901 248.195 402.924C248.57 402.472 248.952 402.028 249.326 401.575C259.611 386.581 264.858 370.058 263.665 351.789C263.393 347.609 264.64 346.112 268.617 345.434C279.26 343.609 289.818 343.383 300.43 345.543C302.941 346.05 303.83 347.04 303.76 349.785C303.471 360.686 304.126 371.423 308.228 381.832C313.359 394.854 321.265 405.599 331.41 415.104C338.747 421.989 346.716 427.627 355.769 431.837C376.939 441.685 398.834 443.643 421.018 436.469C448.824 427.471 469.019 409.716 479.655 381.91C482.696 373.949 484.045 365.606 484.131 357.106C484.154 354.705 484.965 353.777 487.211 353.481C490.696 353.028 494.197 352.693 497.667 352.249C501.901 351.703 502.868 353.434 503.188 357.278C504.443 372.53 504.903 387.758 502.244 402.893C501.605 406.55 502.681 407.322 506.049 407.384C513.574 407.517 521.099 408.039 528.623 408.367C532.545 408.538 534.658 410.27 534.744 413.498L534.76 413.474ZM97.408 310.197C97.4782 310.236 97.5406 310.267 97.6185 310.298L97.5796 310.431C97.5796 310.431 97.5016 310.407 97.4626 310.392C97.1351 310.579 96.8076 310.774 96.4879 310.961C92.1369 318.462 88.0666 326.096 86.0471 334.626C85.7196 336.022 84.9165 335.999 83.8326 335.89C80.8462 335.585 77.852 335.211 74.85 335.11C73.0176 335.047 72.924 334.299 73.1267 332.755C73.9298 326.603 76.1287 321.69 82.2653 318.844C87.1231 316.591 91.5521 313.402 96.1682 310.626C96.5503 310.181 96.9948 310.252 97.4626 310.4C97.486 310.384 97.5016 310.376 97.525 310.361C97.486 310.306 97.447 310.259 97.408 310.205V310.197ZM351.052 280.465C330.685 290.477 316.096 305.94 307.994 327.312C307.05 329.808 305.935 330.143 303.588 329.574C290.294 326.346 276.983 326.579 263.697 329.737C261.849 330.174 260.422 330.681 259.385 328.006C249.349 302.15 230.503 285.588 204.818 276.348C204.233 276.138 203.656 275.904 203.087 275.662C202.993 275.623 202.939 275.483 202.861 275.389C219.555 266.601 340.018 266.102 364.058 274.765C359.668 276.676 355.278 278.391 351.052 280.465ZM387.271 285.596C388.394 285.51 389.524 285.456 390.655 285.432C391.91 285.401 393.166 285.432 394.421 285.432C420.465 286.22 442.04 296.013 457.089 317.901C475.515 344.693 471.039 381.325 447.467 403.876C419.396 430.73 375.723 432.812 345.469 408.094C315.02 383.212 309.889 343.126 333.461 313.09C346.849 296.029 365.531 287.265 387.271 285.596ZM212.725 295.811C252.952 318.852 259.096 367.196 232.148 398.885C203.648 432.407 149.869 434.301 119.405 402.589C100.956 383.392 93.6496 360.576 102.055 334.533C108.901 313.339 124.091 299.53 144.31 291.062C154.306 286.875 164.778 285.229 175.57 285.502C188.833 285.752 201.247 289.237 212.732 295.818L212.725 295.811ZM470.22 309.667C471.85 308.988 472.902 309.862 473.978 310.423C480.981 314.096 487.694 318.26 494.283 322.634C495.772 323.616 499.032 332.81 498.494 334.237C498.197 335.016 497.55 334.993 496.958 334.993C492.56 334.969 488.201 335.437 483.858 336.108C482.657 336.295 481.979 336.061 481.69 334.775C479.647 325.62 475.593 317.355 470.22 309.675V309.667ZM479.647 294.431C449.931 279.966 419.03 268.909 386.717 262.048C346.506 253.502 305.803 249.696 264.734 251.427C203.547 254.001 145.027 267.818 89.9458 295.163C70.5691 304.786 51.941 315.702 34.4357 328.49C33.5234 329.153 32.7359 330.517 31.2544 329.605C31.3012 329.636 31.3479 329.667 31.3947 329.698C31.3323 329.698 31.2622 329.698 31.1998 329.698L31.2076 329.566C31.2232 329.581 31.2466 329.581 31.2622 329.597C34.3811 324.342 37.4221 319.047 40.6269 313.846C47.8006 302.22 56.4713 291.772 65.9764 282.025C67.6997 280.255 68.0584 278.672 67.6373 276.34C60.8223 238.538 60.5104 200.65 66.3507 162.708C67.6529 154.232 69.6257 145.889 73.0176 137.959C77.696 127.019 85.2908 123.814 96.0668 128.688C107.677 133.935 118.219 141.062 128.333 148.743C154.174 168.361 177.862 190.241 197.59 216.191C198.705 217.657 199.703 217.781 201.403 217.36C240.109 207.894 279.292 206.436 318.84 209.976C335.511 211.466 351.94 214.249 368.253 217.82C370.919 218.405 372.307 217.618 373.875 215.622C396.3 187.13 422.749 162.911 452.13 141.85C458.68 137.156 465.69 133.21 472.895 129.631C474.571 128.797 476.349 128.111 478.135 127.541C487.281 124.672 493.425 127.479 497.425 136.259C502.502 147.402 504.552 159.332 506.174 171.324C510.938 206.569 510.011 241.72 503.773 276.715C503.352 279.085 504.046 280.442 505.582 281.97C518.471 294.727 528.834 309.37 537.419 325.324C538.113 326.603 539.228 327.811 538.643 329.628C519.952 316.178 500.303 304.466 479.663 294.415L479.647 294.431Z" fill="url(#paint10_linear_7_182)"/>
<path d="M548.32 359.282C557.778 356.186 565.201 348.771 568.281 339.305C570.519 332.443 571.681 321.815 564.585 310.033C556.289 294.696 547.041 281.284 536.53 269.369C541.434 235.162 541.621 200.838 537.068 167.145C535.29 154.029 532.81 138.746 525.8 123.346C521.863 114.691 516.256 107.876 509.519 103.128C510.283 101.623 510.97 100.087 511.562 98.5115C515.89 87.1662 514.658 75.01 508.186 65.154C501.73 55.3292 491.11 49.3875 479.016 48.8573C472.014 48.561 466.345 49.8866 462.586 50.7677L462.134 50.8768C459.74 51.4305 458.095 51.6878 456.98 51.7969C450.688 44.5999 444.184 38.3463 438.484 33.0519C424.176 19.7494 407.599 10.1741 389.228 4.58332C367.044 -2.16148 345.25 -1.4597 324.47 6.67305C304.524 14.4783 289.608 27.7262 277.654 39.6563C241.801 75.4155 209.325 113.943 179.102 150.38C169.285 141.437 158.673 132.633 147.187 123.916C132.957 113.108 121.151 105.818 108.901 100.274C92.4722 92.8506 79.2789 95.0806 71.0994 98.2698C62.8653 101.475 51.5356 108.835 44.3229 125.701C40.2682 135.175 37.3832 145.733 35.504 157.975C29.7495 195.348 29.5623 232.846 34.9192 269.619C26.7786 278.828 19.9013 288.013 14.061 297.479C11.6594 301.37 9.39029 305.238 7.19141 308.981C6.57541 310.025 5.9594 311.07 5.3434 312.115C5.22644 312.287 5.12507 312.466 5.01591 312.638C4.83657 312.91 4.66503 313.191 4.49348 313.464C4.29855 313.792 4.1036 314.127 3.91647 314.462C3.76052 314.743 3.60457 315.031 3.45642 315.32C3.27708 315.663 3.11333 316.014 2.94959 316.365C2.81703 316.653 2.67667 316.942 2.55191 317.238C2.39596 317.605 2.24782 317.979 2.10746 318.353C1.9983 318.642 1.88133 318.93 1.77216 319.226C1.63181 319.632 1.50705 320.037 1.38229 320.451C1.29652 320.724 1.20296 320.996 1.13278 321.269C0.992425 321.768 0.883259 322.267 0.766297 322.774C0.719513 322.969 0.664924 323.164 0.625937 323.359C0.485583 324.069 0.36083 324.778 0.26726 325.496C0.243868 325.659 0.236072 325.823 0.220478 325.987C0.158098 326.501 0.103518 327.008 0.0645308 327.531C0.0645308 327.593 0.0645231 327.655 0.0567257 327.718C0.0567257 327.749 0.05673 327.78 0.0489325 327.804V327.944C0.0255401 328.24 0.0177403 328.529 0.00994283 328.825C0.00994283 328.864 0.00994283 328.903 0.00994283 328.934C-0.325348 342.252 7.84638 354.37 20.4237 358.993C21.336 359.329 22.2483 359.617 23.1762 359.859C26.1314 360.724 29.1413 361.153 32.1511 361.153C33.7573 361.153 35.3636 361.021 36.9621 360.779C36.58 366.573 36.4085 372.226 36.4553 377.77C27.4258 379.165 19.4646 383.633 13.7491 390.589C7.31616 398.417 4.54027 408.398 5.95941 418.73C7.50331 429.872 13.7257 439.05 22.6694 444.547C21.4062 449.6 21.219 455.043 22.2561 460.618C25.8819 480.119 44.2839 493.032 64.1674 490.014C67.6451 489.484 70.6783 488.657 73.1657 487.893C80.0821 496.72 88.0355 505.009 97.2521 513.017C124.582 536.76 158.205 553.501 200.046 564.184C228.047 571.326 256.811 574.913 286.021 574.913C301.92 574.913 317.959 573.852 334.061 571.724C376.994 566.055 413.868 553.688 446.781 533.929C467.764 521.336 485.402 505.921 499.344 487.995C500.147 488.244 500.958 488.494 501.761 488.743C512.046 491.901 522.619 490.934 531.547 486.03C540.163 481.297 546.362 473.398 549.013 463.768C550.846 457.078 550.799 450.45 549.162 444.368C559.735 437.818 566.316 426.192 565.918 412.585C565.412 394.745 552.881 380.826 535.383 377.778C535.36 371.781 535.087 366.027 534.713 360.584C539.22 361.153 543.867 360.748 548.304 359.298L548.32 359.282ZM202.9 170.56C233.91 133.163 265.272 96.0709 299.69 61.7387C310.325 51.1342 321.585 41.3016 335.847 35.7186C350.475 29.9952 365.368 29.9251 380.167 34.4242C394.109 38.666 406.593 45.9722 417.268 55.8984C423.942 62.1052 430.5 68.5303 436.317 75.626C437.362 76.897 438.672 77.7781 440.067 78.5656C440.442 78.8151 440.824 79.0647 441.198 79.3142C441.588 79.5325 441.97 79.7586 442.36 79.977C442.718 80.2577 443.077 80.5384 443.444 80.8191C451.958 84.1876 460.551 83.2597 469.167 81.2635C471.975 80.6164 474.782 79.899 477.698 80.0238C481.792 80.1953 483.92 83.517 482.447 87.3923C481.487 89.9031 479.951 92.0786 478.096 93.95C465.635 106.496 451.054 115.042 433.338 117.537C421.533 119.198 412.238 114.364 407.669 104.297C405.088 100.094 403.505 95.4939 402.32 90.7375L401.751 89.1858C399.848 84.133 398.101 79.0179 395.201 74.4174C394.811 73.8248 394.429 73.2244 394.039 72.6318C393.657 72.2497 393.283 71.8754 392.901 71.4933C392.526 71.1113 392.152 70.737 391.785 70.3549C390.132 69.5439 388.464 68.7876 386.538 69.271C386.054 69.6219 385.579 69.9806 385.095 70.3315C384.744 71.0723 384.394 71.813 384.05 72.546C383.91 73.0606 383.77 73.5674 383.622 74.0821C383.232 74.9788 382.912 75.8755 382.655 76.7644C382.912 75.8677 383.232 74.9788 383.622 74.0821C383.06 80.4058 383.419 86.714 384.019 93.0143C384.074 93.529 384.121 94.0436 384.175 94.566C384.3 95.3146 384.425 96.0631 384.542 96.8039C385.064 98.8 385.797 100.765 385.696 102.878C385.82 103.377 385.945 103.868 386.07 104.367C386.195 104.882 386.319 105.397 386.444 105.904C387.996 111.44 389.555 116.984 391.107 122.52C391.302 123.035 391.497 123.557 391.684 124.072C391.684 124.766 391.723 125.436 391.793 126.099C391.715 125.436 391.684 124.758 391.684 124.072C393.322 128.345 394.959 132.625 396.597 136.898C399.123 141.538 401.525 146.248 404.238 150.77C405.439 152.774 404.269 153.382 403.053 154.31C393.267 161.803 383.894 169.811 374.584 177.89C370.506 181.43 366.576 185.157 362.654 188.876C361.274 190.186 360.011 190.67 357.991 190.249C318.645 181.976 278.824 178.506 238.659 178.732C225.466 178.81 212.35 180.143 199.212 181.235C197.847 181.352 196.49 181.5 194.307 181.71C197.457 177.601 200.046 173.96 202.892 170.529L202.9 170.56ZM534.76 413.474C534.845 416.718 532.873 418.738 528.857 418.855C520.069 419.12 511.282 419.244 502.494 419.237C499.96 419.237 498.837 420.048 498.112 422.582C496.568 428.024 494.689 433.389 492.677 438.683C491.858 440.828 492.357 441.452 494.392 442.06C501.005 444.025 507.586 446.13 514.135 448.313C518.362 449.725 519.874 452.15 518.939 455.542C518.073 458.684 515.04 460.189 510.923 458.926C500.123 455.612 489.402 452.064 478.641 448.61C477.448 448.228 476.279 447.713 475.062 447.448C473.144 447.027 471.897 448.134 471.21 449.732C470.485 451.432 470.844 453.07 472.614 453.904C474.875 454.98 477.175 456.095 479.585 456.711C482.337 457.421 482.205 458.302 480.786 460.431C467.756 479.979 450.742 495.168 430.734 507.176C399.614 525.851 365.68 536.074 329.975 540.791C288.828 546.226 248.016 544.238 207.758 533.953C174.665 525.5 143.85 512.174 117.705 489.461C107.786 480.844 98.9519 471.253 91.6535 460.251C90.3123 458.232 89.8367 457.171 92.7685 456.501C94.6945 456.056 96.5425 455.128 98.3281 454.224C100.106 453.319 101.541 451.978 100.621 449.709C99.7005 447.456 98.0162 446.972 95.7004 447.736C86.0549 450.949 76.3861 454.083 66.7094 457.202C64.3234 457.967 61.914 458.793 59.4578 459.167C56.0659 459.682 53.4693 457.889 52.9157 454.91C52.2763 451.471 53.906 449.374 57.1107 448.352C63.684 446.247 70.2183 444.001 76.8461 442.091C79.7858 441.241 80.7137 440.274 79.2633 437.202C77.0099 432.43 75.0449 427.486 73.8519 422.309C73.3217 420.016 72.0975 419.338 69.922 419.322C60.8847 419.26 51.8397 419.096 42.8024 418.94C39.7614 418.886 37.3208 417.872 36.8451 414.441C36.3851 411.088 38.4436 408.71 42.0149 408.499C50.2802 408.016 58.5533 407.462 66.8342 407.252C69.9298 407.174 70.2651 406.02 69.8284 403.377C67.4034 388.749 67.1227 374.035 68.3235 359.274C68.4326 357.894 68.7056 356.522 68.7523 355.142C68.8225 352.787 69.766 351.64 72.23 352.256C72.4717 352.319 72.729 352.28 72.9786 352.295C82.6318 352.794 82.3121 352.841 83.6689 362.183C88.5111 395.478 106.71 419.182 137.05 432.523C171.999 447.892 204.452 441.53 233.918 417.825C234.698 417.201 235.501 416.617 236.296 416.016C236.6 415.751 236.912 415.486 237.216 415.229C237.489 414.964 237.762 414.706 238.035 414.441L237.934 414.543C238.222 414.27 238.511 413.989 238.799 413.716L238.714 413.802C238.994 413.521 239.267 413.248 239.548 412.967L239.47 413.045C239.735 412.78 239.992 412.515 240.257 412.25C240.257 412.25 240.242 412.25 240.234 412.25C240.234 411.221 240.733 410.691 241.762 410.683C241.762 410.691 241.762 410.698 241.762 410.706C241.996 410.464 242.23 410.223 242.464 409.981C242.729 409.685 243.002 409.381 243.267 409.084L243.143 409.248C243.431 408.897 243.727 408.546 244.016 408.195C244 407.915 244.141 407.743 244.421 407.696C244.827 407.229 245.224 406.753 245.63 406.285C246.043 405.755 246.456 405.217 246.862 404.687C247.135 404.351 247.408 404.008 247.681 403.673L247.525 403.813C247.743 403.517 247.969 403.221 248.187 402.932L248.242 402.862C248.226 402.885 248.211 402.901 248.195 402.924C248.57 402.472 248.952 402.028 249.326 401.575C259.611 386.581 264.858 370.058 263.665 351.789C263.393 347.609 264.64 346.112 268.617 345.434C279.26 343.609 289.818 343.383 300.43 345.543C302.941 346.05 303.83 347.04 303.76 349.785C303.471 360.686 304.126 371.423 308.228 381.832C313.359 394.854 321.265 405.599 331.41 415.104C338.747 421.989 346.716 427.627 355.769 431.837C376.939 441.685 398.834 443.643 421.018 436.469C448.824 427.471 469.019 409.716 479.655 381.91C482.696 373.949 484.045 365.606 484.131 357.106C484.154 354.705 484.965 353.777 487.211 353.481C490.696 353.028 494.197 352.693 497.667 352.249C501.901 351.703 502.868 353.434 503.188 357.278C504.443 372.53 504.903 387.758 502.244 402.893C501.605 406.55 502.681 407.322 506.049 407.384C513.574 407.517 521.099 408.039 528.623 408.367C532.545 408.538 534.658 410.27 534.744 413.498L534.76 413.474ZM97.408 310.197C97.4782 310.236 97.5406 310.267 97.6185 310.298L97.5796 310.431C97.5796 310.431 97.5016 310.407 97.4626 310.392C97.1351 310.579 96.8076 310.774 96.4879 310.961C92.1369 318.462 88.0666 326.096 86.0471 334.626C85.7196 336.022 84.9165 335.999 83.8326 335.89C80.8462 335.585 77.852 335.211 74.85 335.11C73.0176 335.047 72.924 334.299 73.1267 332.755C73.9298 326.603 76.1287 321.69 82.2653 318.844C87.1231 316.591 91.5521 313.402 96.1682 310.626C96.5503 310.181 96.9948 310.252 97.4626 310.4C97.486 310.384 97.5016 310.376 97.525 310.361C97.486 310.306 97.447 310.259 97.408 310.205V310.197ZM351.052 280.465C330.685 290.477 316.096 305.94 307.994 327.312C307.05 329.808 305.935 330.143 303.588 329.574C290.294 326.346 276.983 326.579 263.697 329.737C261.849 330.174 260.422 330.681 259.385 328.006C249.349 302.15 230.503 285.588 204.818 276.348C204.233 276.138 203.656 275.904 203.087 275.662C202.993 275.623 202.939 275.483 202.861 275.389C219.555 266.601 340.018 266.102 364.058 274.765C359.668 276.676 355.278 278.391 351.052 280.465ZM387.271 285.596C388.394 285.51 389.524 285.456 390.655 285.432C391.91 285.401 393.166 285.432 394.421 285.432C420.465 286.22 442.04 296.013 457.089 317.901C475.515 344.693 471.039 381.325 447.467 403.876C419.396 430.73 375.723 432.812 345.469 408.094C315.02 383.212 309.889 343.126 333.461 313.09C346.849 296.029 365.531 287.265 387.271 285.596ZM212.725 295.811C252.952 318.852 259.096 367.196 232.148 398.885C203.648 432.407 149.869 434.301 119.405 402.589C100.956 383.392 93.6496 360.576 102.055 334.533C108.901 313.339 124.091 299.53 144.31 291.062C154.306 286.875 164.778 285.229 175.57 285.502C188.833 285.752 201.247 289.237 212.732 295.818L212.725 295.811ZM470.22 309.667C471.85 308.988 472.902 309.862 473.978 310.423C480.981 314.096 487.694 318.26 494.283 322.634C495.772 323.616 499.032 332.81 498.494 334.237C498.197 335.016 497.55 334.993 496.958 334.993C492.56 334.969 488.201 335.437 483.858 336.108C482.657 336.295 481.979 336.061 481.69 334.775C479.647 325.62 475.593 317.355 470.22 309.675V309.667ZM479.647 294.431C449.931 279.966 419.03 268.909 386.717 262.048C346.506 253.502 305.803 249.696 264.734 251.427C203.547 254.001 145.027 267.818 89.9458 295.163C70.5691 304.786 51.941 315.702 34.4357 328.49C33.5234 329.153 32.7359 330.517 31.2544 329.605C31.3012 329.636 31.3479 329.667 31.3947 329.698C31.3323 329.698 31.2622 329.698 31.1998 329.698L31.2076 329.566C31.2232 329.581 31.2466 329.581 31.2622 329.597C34.3811 324.342 37.4221 319.047 40.6269 313.846C47.8006 302.22 56.4713 291.772 65.9764 282.025C67.6997 280.255 68.0584 278.672 67.6373 276.34C60.8223 238.538 60.5104 200.65 66.3507 162.708C67.6529 154.232 69.6257 145.889 73.0176 137.959C77.696 127.019 85.2908 123.814 96.0668 128.688C107.677 133.935 118.219 141.062 128.333 148.743C154.174 168.361 177.862 190.241 197.59 216.191C198.705 217.657 199.703 217.781 201.403 217.36C240.109 207.894 279.292 206.436 318.84 209.976C335.511 211.466 351.94 214.249 368.253 217.82C370.919 218.405 372.307 217.618 373.875 215.622C396.3 187.13 422.749 162.911 452.13 141.85C458.68 137.156 465.69 133.21 472.895 129.631C474.571 128.797 476.349 128.111 478.135 127.541C487.281 124.672 493.425 127.479 497.425 136.259C502.502 147.402 504.552 159.332 506.174 171.324C510.938 206.569 510.011 241.72 503.773 276.715C503.352 279.085 504.046 280.442 505.582 281.97C518.471 294.727 528.834 309.37 537.419 325.324C538.113 326.603 539.228 327.811 538.643 329.628C519.952 316.178 500.303 304.466 479.663 294.415L479.647 294.431Z" fill="url(#paint11_linear_7_182)"/>
<path d="M476.793 168.665C476.092 166.661 475.226 165.983 473.417 167.488C472.941 167.886 472.349 168.151 471.826 168.494C448.863 183.41 429.346 202.148 411.731 223.021C409.439 225.735 412.121 225.563 413.283 225.922C423.63 229.08 433.642 233.088 443.381 237.759C456.068 243.841 468.146 251.006 479.897 259.576C480.232 258.11 480.489 257.268 480.606 256.41C483.678 234.078 483.834 211.707 481.183 189.336C480.357 182.334 479.14 175.379 476.801 168.681L476.793 168.665Z" fill="url(#paint12_linear_7_182)"/>
<path d="M476.793 168.665C476.092 166.661 475.226 165.983 473.417 167.488C472.941 167.886 472.349 168.151 471.826 168.494C448.863 183.41 429.346 202.148 411.731 223.021C409.439 225.735 412.121 225.563 413.283 225.922C423.63 229.08 433.642 233.088 443.381 237.759C456.068 243.841 468.146 251.006 479.897 259.576C480.232 258.11 480.489 257.268 480.606 256.41C483.678 234.078 483.834 211.707 481.183 189.336C480.357 182.334 479.14 175.379 476.801 168.681L476.793 168.665Z" fill="url(#paint13_linear_7_182)"/>
<defs>
<linearGradient id="paint0_linear_7_182" x1="235.786" y1="403.383" x2="295.471" y2="516.278" gradientUnits="userSpaceOnUse">
<stop stop-color="#FD1B77"/>
<stop offset="1" stop-color="#AC01B1"/>
</linearGradient>
<linearGradient id="paint1_linear_7_182" x1="235.786" y1="403.383" x2="295.471" y2="516.278" gradientUnits="userSpaceOnUse">
<stop stop-color="#FD1B77"/>
<stop offset="1" stop-color="#E31BFD"/>
</linearGradient>
<linearGradient id="paint2_linear_7_182" x1="126.375" y1="308.249" x2="238.892" y2="434.54" gradientUnits="userSpaceOnUse">
<stop stop-color="#FD1B77"/>
<stop offset="1" stop-color="#AC01B1"/>
</linearGradient>
<linearGradient id="paint3_linear_7_182" x1="126.375" y1="308.249" x2="238.892" y2="434.54" gradientUnits="userSpaceOnUse">
<stop stop-color="#FD1B77"/>
<stop offset="1" stop-color="#E31BFD"/>
</linearGradient>
<linearGradient id="paint4_linear_7_182" x1="346.395" y1="308.263" x2="458.849" y2="434.473" gradientUnits="userSpaceOnUse">
<stop stop-color="#FD1B77"/>
<stop offset="1" stop-color="#AC01B1"/>
</linearGradient>
<linearGradient id="paint5_linear_7_182" x1="346.395" y1="308.263" x2="458.849" y2="434.473" gradientUnits="userSpaceOnUse">
<stop stop-color="#FD1B77"/>
<stop offset="1" stop-color="#E31BFD"/>
</linearGradient>
<linearGradient id="paint6_linear_7_182" x1="248.249" y1="402.764" x2="248.347" y2="403.024" gradientUnits="userSpaceOnUse">
<stop stop-color="#FD1B77"/>
<stop offset="1" stop-color="#AC01B1"/>
</linearGradient>
<linearGradient id="paint7_linear_7_182" x1="248.249" y1="402.764" x2="248.347" y2="403.024" gradientUnits="userSpaceOnUse">
<stop stop-color="#FD1B77"/>
<stop offset="1" stop-color="#E31BFD"/>
</linearGradient>
<linearGradient id="paint8_linear_7_182" x1="95.5054" y1="173.615" x2="187.603" y2="250.237" gradientUnits="userSpaceOnUse">
<stop stop-color="#FD1B77"/>
<stop offset="1" stop-color="#AC01B1"/>
</linearGradient>
<linearGradient id="paint9_linear_7_182" x1="95.5054" y1="173.615" x2="187.603" y2="250.237" gradientUnits="userSpaceOnUse">
<stop stop-color="#FD1B77"/>
<stop offset="1" stop-color="#E31BFD"/>
</linearGradient>
<linearGradient id="paint10_linear_7_182" x1="59.5605" y1="44.3536" x2="633.954" y2="655.053" gradientUnits="userSpaceOnUse">
<stop stop-color="#FD1B77"/>
<stop offset="1" stop-color="#AC01B1"/>
</linearGradient>
<linearGradient id="paint11_linear_7_182" x1="59.5605" y1="44.3536" x2="633.954" y2="655.053" gradientUnits="userSpaceOnUse">
<stop stop-color="#FD1B77"/>
<stop offset="1" stop-color="#E31BFD"/>
</linearGradient>
<linearGradient id="paint12_linear_7_182" x1="418.379" y1="173.838" x2="509.855" y2="250.09" gradientUnits="userSpaceOnUse">
<stop stop-color="#FD1B77"/>
<stop offset="1" stop-color="#AC01B1"/>
</linearGradient>
<linearGradient id="paint13_linear_7_182" x1="418.379" y1="173.838" x2="509.855" y2="250.09" gradientUnits="userSpaceOnUse">
<stop stop-color="#FD1B77"/>
<stop offset="1" stop-color="#E31BFD"/>
</linearGradient>
</defs>
</svg>
